<?xml version="1.0" encoding="UTF-8" standalone="no"?>
<svg
   xmlns:dc="http://purl.org/dc/elements/1.1/"
   xmlns:cc="http://creativecommons.org/ns#"
   xmlns:rdf="http://www.w3.org/1999/02/22-rdf-syntax-ns#"
   xmlns:svg="http://www.w3.org/2000/svg"
   xmlns="http://www.w3.org/2000/svg"
   xmlns:sodipodi="http://sodipodi.sourceforge.net/DTD/sodipodi-0.dtd"
   xmlns:inkscape="http://www.inkscape.org/namespaces/inkscape"
   viewBox="0 0 2209.0132 2209.0132"
   height="2209.0132"
   width="2209.0132"
   xml:space="preserve"
   id="svg2"
   version="1.1"
   inkscape:version="0.92.2 (5c3e80d, 2017-08-06)"
   sodipodi:docname="Discovery_Channel_(2016)_(Print).svg"><sodipodi:namedview
     pagecolor="#ffffff"
     bordercolor="#666666"
     borderopacity="1"
     objecttolerance="10"
     gridtolerance="10"
     guidetolerance="10"
     inkscape:pageopacity="0"
     inkscape:pageshadow="2"
     inkscape:window-width="1366"
     inkscape:window-height="705"
     id="namedview187"
     showgrid="false"
     inkscape:zoom="0.21367008"
     inkscape:cx="974.40793"
     inkscape:cy="1005.9436"
     inkscape:window-x="-8"
     inkscape:window-y="-8"
     inkscape:window-maximized="1"
     inkscape:current-layer="g12" /><metadata
     id="metadata8"><rdf:RDF><cc:Work
         rdf:about=""><dc:format>image/svg+xml</dc:format><dc:type
           rdf:resource="http://purl.org/dc/dcmitype/StillImage" /></cc:Work></rdf:RDF></metadata><defs
     id="defs6"><clipPath
       id="clipPath44"
       clipPathUnits="userSpaceOnUse"><path
         id="path42"
         d="m 2153.79,8602.33 c 0,1817.87 1473.66,3291.47 3291.51,3291.47 1817.84,0 3291.5,-1473.6 3291.5,-3291.47 0,-1817.85 -1473.66,-3291.53 -3291.5,-3291.53 -1817.85,0 -3291.51,1473.68 -3291.51,3291.53" /></clipPath><clipPath
       id="clipPath50"
       clipPathUnits="userSpaceOnUse"><path
         id="path48"
         d="m 5445.3,5310.8 c -1817.85,0 -3291.51,1473.68 -3291.51,3291.53 0,1817.87 1473.66,3291.47 3291.51,3291.47 1817.84,0 3291.5,-1473.6 3291.5,-3291.47 0,-1817.85 -1473.66,-3291.53 -3291.5,-3291.53" /></clipPath><clipPath
       id="clipPath56"
       clipPathUnits="userSpaceOnUse"><path
         id="path54"
         d="m 3881.26,9813.59 h 2085.6 v 2085.59 h -2085.6 z" /></clipPath><clipPath
       id="clipPath68"
       clipPathUnits="userSpaceOnUse"><path
         id="path66"
         d="m 2153.79,8602.33 c 0,1817.87 1473.66,3291.47 3291.51,3291.47 1817.84,0 3291.5,-1473.6 3291.5,-3291.47 0,-1817.85 -1473.66,-3291.53 -3291.5,-3291.53 -1817.85,0 -3291.51,1473.68 -3291.51,3291.53" /></clipPath><clipPath
       id="clipPath74"
       clipPathUnits="userSpaceOnUse"><path
         id="path72"
         d="m 5445.3,5310.8 c -1817.85,0 -3291.51,1473.68 -3291.51,3291.53 0,1817.87 1473.66,3291.47 3291.51,3291.47 1817.84,0 3291.5,-1473.6 3291.5,-3291.47 0,-1817.85 -1473.66,-3291.53 -3291.5,-3291.53" /></clipPath><clipPath
       id="clipPath80"
       clipPathUnits="userSpaceOnUse"><path
         id="path78"
         d="m 5962.06,7387.18 h 1046.4 v 4512 h -1046.4 z" /></clipPath><clipPath
       id="clipPath92"
       clipPathUnits="userSpaceOnUse"><path
         id="path90"
         d="m 2153.79,8602.33 c 0,1817.87 1473.66,3291.47 3291.51,3291.47 1817.84,0 3291.5,-1473.6 3291.5,-3291.47 0,-1817.85 -1473.66,-3291.53 -3291.5,-3291.53 -1817.85,0 -3291.51,1473.68 -3291.51,3291.53" /></clipPath><clipPath
       id="clipPath98"
       clipPathUnits="userSpaceOnUse"><path
         id="path96"
         d="m 5445.3,5310.8 c -1817.85,0 -3291.51,1473.68 -3291.51,3291.53 0,1817.87 1473.66,3291.47 3291.51,3291.47 1817.84,0 3291.5,-1473.6 3291.5,-3291.47 0,-1817.85 -1473.66,-3291.53 -3291.5,-3291.53" /></clipPath><clipPath
       id="clipPath104"
       clipPathUnits="userSpaceOnUse"><path
         id="path102"
         d="m 3187.66,5652 h 698.398 v 5901.58 H 3187.66 Z" /></clipPath><clipPath
       id="clipPath116"
       clipPathUnits="userSpaceOnUse"><path
         id="path114"
         d="m 2153.79,8602.33 c 0,1817.87 1473.66,3291.47 3291.51,3291.47 1817.84,0 3291.5,-1473.6 3291.5,-3291.47 0,-1817.85 -1473.66,-3291.53 -3291.5,-3291.53 -1817.85,0 -3291.51,1473.68 -3291.51,3291.53" /></clipPath><clipPath
       id="clipPath122"
       clipPathUnits="userSpaceOnUse"><path
         id="path120"
         d="m 5445.3,5310.8 c -1817.85,0 -3291.51,1473.68 -3291.51,3291.53 0,1817.87 1473.66,3291.47 3291.51,3291.47 1817.84,0 3291.5,-1473.6 3291.5,-3291.47 0,-1817.85 -1473.66,-3291.53 -3291.5,-3291.53" /></clipPath><clipPath
       id="clipPath128"
       clipPathUnits="userSpaceOnUse"><path
         id="path126"
         d="m 7003.66,5652 h 698.398 v 5901.58 H 7003.66 Z" /></clipPath><clipPath
       id="clipPath140"
       clipPathUnits="userSpaceOnUse"><path
         id="path138"
         d="m 2153.79,8602.33 c 0,1817.87 1473.66,3291.47 3291.51,3291.47 1817.84,0 3291.5,-1473.6 3291.5,-3291.47 0,-1817.85 -1473.66,-3291.53 -3291.5,-3291.53 -1817.85,0 -3291.51,1473.68 -3291.51,3291.53" /></clipPath><clipPath
       id="clipPath146"
       clipPathUnits="userSpaceOnUse"><path
         id="path144"
         d="m 5445.3,5310.8 c -1817.85,0 -3291.51,1473.68 -3291.51,3291.53 0,1817.87 1473.66,3291.47 3291.51,3291.47 1817.84,0 3291.5,-1473.6 3291.5,-3291.47 0,-1817.85 -1473.66,-3291.53 -3291.5,-3291.53" /></clipPath><clipPath
       id="clipPath152"
       clipPathUnits="userSpaceOnUse"><path
         id="path150"
         d="m 2842.06,6000 h 350.402 v 5205.59 H 2842.06 Z" /></clipPath><clipPath
       id="clipPath164"
       clipPathUnits="userSpaceOnUse"><path
         id="path162"
         d="m 2153.79,8602.33 c 0,1817.87 1473.66,3291.47 3291.51,3291.47 1817.84,0 3291.5,-1473.6 3291.5,-3291.47 0,-1817.85 -1473.66,-3291.53 -3291.5,-3291.53 -1817.85,0 -3291.51,1473.68 -3291.51,3291.53" /></clipPath><clipPath
       id="clipPath170"
       clipPathUnits="userSpaceOnUse"><path
         id="path168"
         d="m 5445.3,5310.8 c -1817.85,0 -3291.51,1473.68 -3291.51,3291.53 0,1817.87 1473.66,3291.47 3291.51,3291.47 1817.84,0 3291.5,-1473.6 3291.5,-3291.47 0,-1817.85 -1473.66,-3291.53 -3291.5,-3291.53" /></clipPath><clipPath
       id="clipPath176"
       clipPathUnits="userSpaceOnUse"><path
         id="path174"
         d="m 7697.26,6000 h 350.398 v 5205.59 H 7697.26 Z" /></clipPath><clipPath
       id="clipPath188"
       clipPathUnits="userSpaceOnUse"><path
         id="path186"
         d="m 2153.79,8602.33 c 0,1817.87 1473.66,3291.47 3291.51,3291.47 1817.84,0 3291.5,-1473.6 3291.5,-3291.47 0,-1817.85 -1473.66,-3291.53 -3291.5,-3291.53 -1817.85,0 -3291.51,1473.68 -3291.51,3291.53" /></clipPath><clipPath
       id="clipPath194"
       clipPathUnits="userSpaceOnUse"><path
         id="path192"
         d="m 5445.3,5310.8 c -1817.85,0 -3291.51,1473.68 -3291.51,3291.53 0,1817.87 1473.66,3291.47 3291.51,3291.47 1817.84,0 3291.5,-1473.6 3291.5,-3291.47 0,-1817.85 -1473.66,-3291.53 -3291.5,-3291.53" /></clipPath><clipPath
       id="clipPath200"
       clipPathUnits="userSpaceOnUse"><path
         id="path198"
         d="m 2494.06,6345.6 h 352.801 v 4514.39 H 2494.06 Z" /></clipPath><clipPath
       id="clipPath212"
       clipPathUnits="userSpaceOnUse"><path
         id="path210"
         d="m 2153.79,8602.33 c 0,1817.87 1473.66,3291.47 3291.51,3291.47 1817.84,0 3291.5,-1473.6 3291.5,-3291.47 0,-1817.85 -1473.66,-3291.53 -3291.5,-3291.53 -1817.85,0 -3291.51,1473.68 -3291.51,3291.53" /></clipPath><clipPath
       id="clipPath218"
       clipPathUnits="userSpaceOnUse"><path
         id="path216"
         d="m 5445.3,5310.8 c -1817.85,0 -3291.51,1473.68 -3291.51,3291.53 0,1817.87 1473.66,3291.47 3291.51,3291.47 1817.84,0 3291.5,-1473.6 3291.5,-3291.47 0,-1817.85 -1473.66,-3291.53 -3291.5,-3291.53" /></clipPath><clipPath
       id="clipPath224"
       clipPathUnits="userSpaceOnUse"><path
         id="path222"
         d="m 8042.86,6345.6 h 352.801 v 4514.39 H 8042.86 Z" /></clipPath><clipPath
       id="clipPath236"
       clipPathUnits="userSpaceOnUse"><path
         id="path234"
         d="m 2153.79,8602.33 c 0,1817.87 1473.66,3291.47 3291.51,3291.47 1817.84,0 3291.5,-1473.6 3291.5,-3291.47 0,-1817.85 -1473.66,-3291.53 -3291.5,-3291.53 -1817.85,0 -3291.51,1473.68 -3291.51,3291.53" /></clipPath><clipPath
       id="clipPath242"
       clipPathUnits="userSpaceOnUse"><path
         id="path240"
         d="m 5445.3,5310.8 c -1817.85,0 -3291.51,1473.68 -3291.51,3291.53 0,1817.87 1473.66,3291.47 3291.51,3291.47 1817.84,0 3291.5,-1473.6 3291.5,-3291.47 0,-1817.85 -1473.66,-3291.53 -3291.5,-3291.53" /></clipPath><clipPath
       id="clipPath248"
       clipPathUnits="userSpaceOnUse"><path
         id="path246"
         d="m 2148.46,7039.19 h 350.398 v 3127.19 H 2148.46 Z" /></clipPath><clipPath
       id="clipPath260"
       clipPathUnits="userSpaceOnUse"><path
         id="path258"
         d="m 2153.79,8602.33 c 0,1817.87 1473.66,3291.47 3291.51,3291.47 1817.84,0 3291.5,-1473.6 3291.5,-3291.47 0,-1817.85 -1473.66,-3291.53 -3291.5,-3291.53 -1817.85,0 -3291.51,1473.68 -3291.51,3291.53" /></clipPath><clipPath
       id="clipPath266"
       clipPathUnits="userSpaceOnUse"><path
         id="path264"
         d="m 5445.3,5310.8 c -1817.85,0 -3291.51,1473.68 -3291.51,3291.53 0,1817.87 1473.66,3291.47 3291.51,3291.47 1817.84,0 3291.5,-1473.6 3291.5,-3291.47 0,-1817.85 -1473.66,-3291.53 -3291.5,-3291.53" /></clipPath><clipPath
       id="clipPath272"
       clipPathUnits="userSpaceOnUse"><path
         id="path270"
         d="m 8390.86,7039.19 h 350.402 v 3127.19 H 8390.86 Z" /></clipPath><clipPath
       id="clipPath284"
       clipPathUnits="userSpaceOnUse"><path
         id="path282"
         d="m 2153.79,8602.33 c 0,1817.87 1473.66,3291.47 3291.51,3291.47 1817.84,0 3291.5,-1473.6 3291.5,-3291.47 0,-1817.85 -1473.66,-3291.53 -3291.5,-3291.53 -1817.85,0 -3291.51,1473.68 -3291.51,3291.53" /></clipPath><clipPath
       id="clipPath290"
       clipPathUnits="userSpaceOnUse"><path
         id="path288"
         d="m 5445.3,5310.8 c -1817.85,0 -3291.51,1473.68 -3291.51,3291.53 0,1817.87 1473.66,3291.47 3291.51,3291.47 1817.84,0 3291.5,-1473.6 3291.5,-3291.47 0,-1817.85 -1473.66,-3291.53 -3291.5,-3291.53" /></clipPath><clipPath
       id="clipPath296"
       clipPathUnits="userSpaceOnUse"><path
         id="path294"
         d="m 3881.26,7732.78 h 2085.6 v 2085.6 h -2085.6 z" /></clipPath><clipPath
       id="clipPath308"
       clipPathUnits="userSpaceOnUse"><path
         id="path306"
         d="m 2153.79,8602.33 c 0,1817.87 1473.66,3291.47 3291.51,3291.47 1817.84,0 3291.5,-1473.6 3291.5,-3291.47 0,-1817.85 -1473.66,-3291.53 -3291.5,-3291.53 -1817.85,0 -3291.51,1473.68 -3291.51,3291.53" /></clipPath><clipPath
       id="clipPath314"
       clipPathUnits="userSpaceOnUse"><path
         id="path312"
         d="m 5445.3,5310.8 c -1817.85,0 -3291.51,1473.68 -3291.51,3291.53 0,1817.87 1473.66,3291.47 3291.51,3291.47 1817.84,0 3291.5,-1473.6 3291.5,-3291.47 0,-1817.85 -1473.66,-3291.53 -3291.5,-3291.53" /></clipPath><clipPath
       id="clipPath320"
       clipPathUnits="userSpaceOnUse"><path
         id="path318"
         d="m 3881.26,5652 h 2085.6 v 2085.59 h -2085.6 z" /></clipPath><clipPath
       id="clipPath332"
       clipPathUnits="userSpaceOnUse"><path
         id="path330"
         d="m 2153.79,8602.33 c 0,1817.87 1473.66,3291.47 3291.51,3291.47 1817.84,0 3291.5,-1473.6 3291.5,-3291.47 0,-1817.85 -1473.66,-3291.53 -3291.5,-3291.53 -1817.85,0 -3291.51,1473.68 -3291.51,3291.53" /></clipPath><clipPath
       id="clipPath338"
       clipPathUnits="userSpaceOnUse"><path
         id="path336"
         d="m 5445.3,5310.8 c -1817.85,0 -3291.51,1473.68 -3291.51,3291.53 0,1817.87 1473.66,3291.47 3291.51,3291.47 1817.84,0 3291.5,-1473.6 3291.5,-3291.47 0,-1817.85 -1473.66,-3291.53 -3291.5,-3291.53" /></clipPath><clipPath
       id="clipPath344"
       clipPathUnits="userSpaceOnUse"><path
         id="path342"
         d="m 5962.06,5306.4 h 1046.4 v 2085.58 h -1046.4 z" /></clipPath><clipPath
       id="clipPath356"
       clipPathUnits="userSpaceOnUse"><path
         id="path354"
         d="m 2153.79,8602.33 c 0,1817.87 1473.66,3291.47 3291.51,3291.47 1817.84,0 3291.5,-1473.6 3291.5,-3291.47 0,-1817.85 -1473.66,-3291.53 -3291.5,-3291.53 -1817.85,0 -3291.51,1473.68 -3291.51,3291.53" /></clipPath><clipPath
       id="clipPath362"
       clipPathUnits="userSpaceOnUse"><path
         id="path360"
         d="m 5445.3,5310.8 c -1817.85,0 -3291.51,1473.68 -3291.51,3291.53 0,1817.87 1473.66,3291.47 3291.51,3291.47 1817.84,0 3291.5,-1473.6 3291.5,-3291.47 0,-1817.85 -1473.66,-3291.53 -3291.5,-3291.53" /></clipPath><clipPath
       id="clipPath368"
       clipPathUnits="userSpaceOnUse"><path
         id="path366"
         d="m 3881.26,5306.4 h 2085.6 v 350.402 h -2085.6 z" /></clipPath><polygon
       points="0 282.163634 0 0.0873174551 299.886414 0.0873174551 299.886414 282.163634"
       id="path-1" /><polygon
       points="127.852433 71.5274361 0.00597902098 71.5274361 0.00597902098 0.0768657521 127.852433 0.0768657521"
       id="path-3" /></defs><g
     transform="matrix(1.3333333,0,0,-1.3333333,0,2209.0133)"
     id="g10"
     style="fill:#000000"><g
       transform="scale(0.1)"
       id="g12"
       style="fill:#000000"><path
         id="path14"
         style="fill:#000000;fill-opacity:1;fill-rule:nonzero;stroke:none"
         d="m 5034.63,3322.2 h -295.27 v 1253.1 h 295.27 V 3322.2" /><path
         id="path16"
         style="fill:#000000;fill-opacity:1;fill-rule:nonzero;stroke:none"
         d="m 6196.14,4448.5 -113.61,-199.8 c -121.44,102.8 -524.93,199.8 -524.93,-11.7 0,-234.1 669.87,-101.9 669.87,-564.2 0,-407.8 -581.73,-497.5 -1003.34,-191.9 l 131.73,191.9 c 119.48,-119.4 605.23,-274.2 605.23,-17.6 0,248.8 -675.25,109.2 -675.25,564.1 0,391.8 537.16,486.8 910.3,229.2" /><path
         id="path18"
         style="fill:#000000;fill-opacity:1;fill-rule:nonzero;stroke:none"
         d="m 7330.23,4189 c -197.83,257 -683.58,211.5 -683.58,-252.7 0,-452.5 526.89,-490.7 693.38,-242.4 37.21,-37.2 136.86,-134.4 174.32,-171.9 -390.76,-464.2 -1157.59,-199.8 -1157.59,414.3 0,639 766.83,866.7 1149.76,446.6 L 7330.23,4189" /><path
         id="path20"
         style="fill:#000000;fill-opacity:1;fill-rule:nonzero;stroke:none"
         d="m 8265.5,3541.1 c -222.29,0 -388.3,165 -388.3,402.5 0,254.2 178.99,402.6 388.3,402.6 209.32,0 379.01,-189.5 379.01,-402.6 0,-237.5 -169.69,-402.5 -379.01,-402.5 z m -9.3,1054.8 c -370.76,0 -671.34,-292.8 -671.34,-654 0,-361.1 300.58,-653.9 671.34,-653.9 370.78,0 671.35,292.8 671.35,653.9 0,361.2 -300.57,654 -671.35,654" /><path
         id="path22"
         style="fill:#000000;fill-opacity:1;fill-rule:nonzero;stroke:none"
         d="m 8937.83,4575.3 h 311.44 l 336.4,-924.7 339.35,924.7 h 302.58 L 9716.42,3304.6 h -261.5 l -517.09,1270.7" /><path
         id="path24"
         style="fill:#000000;fill-opacity:1;fill-rule:nonzero;stroke:none"
         d="m 10540.5,4059.7 c 68.6,403.5 598.4,404.5 644.9,0 z m -286.4,-116.1 c 0,-676.2 850.6,-852.5 1161,-421.6 l -170.9,149.9 c -130.7,-191 -621.4,-270.3 -703.7,170.9 h 927 c 72,1015.1 -1213.4,950.4 -1213.4,100.8" /><path
         id="path26"
         style="fill:#000000;fill-opacity:1;fill-rule:nonzero;stroke:none"
         d="m 11684.4,4575.3 h 292.8 v -213 c 0,0 139.1,175.8 383.5,198.8 l 97.4,-239.1 c -125.8,0 -480.9,-133 -480.9,-488.5 0,-171.2 0,-511.3 0,-511.3 h -292.8 v 1253.1" /><path
         id="path28"
         style="fill:#000000;fill-opacity:1;fill-rule:nonzero;stroke:none"
         d="m 12552.1,4575.3 h 306.6 l 298.7,-923 322.2,923 h 296.7 c 0,0 -515.6,-1319.2 -613.1,-1563.8 -76.4,-192.6 -184.8,-274.9 -431,-274.9 h -180.1 v 239 c 0,0 184.9,0 217.4,0 131.3,0 244.9,346.6 244.9,346.6 l -462.3,1253.1" /><path
         id="path30"
         style="fill:#000000;fill-opacity:1;fill-rule:nonzero;stroke:none"
         d="m 3734.54,3591.6 c -69.88,0 -190.59,0 -256.94,0 -28.5,0 -47.14,0 -47.14,0 h -63.01 v 1130.1 c 14.15,0 95.17,0 367.09,0 309.97,0 533.26,-227.2 533.26,-585.6 0,-337.9 -261.49,-544.5 -533.26,-544.5 z m -76.39,1398.5 c -105.03,0 -592.98,0 -592.98,0 v -242.2 -43.3 -1382.4 h 75.1 43.39 c 51.45,0 108.14,0 183.79,0 32.71,0 69.11,0 110.15,0 70.04,0 153.56,0 256.94,0 304.09,0 840.28,246.8 840.28,813.9 0,590.5 -433.36,854 -916.67,854" /><path
         id="path32"
         style="fill:#000000;fill-opacity:1;fill-rule:nonzero;stroke:none"
         d="m 13921.9,11438.9 c -597.2,1056.5 -1849,2021.3 -3445.4,2021.3 -1312.93,0 -3157.49,0 -3329.08,0 -8.52,0 -12.92,-10.8 -12.92,-10.8 v -1273.2 c 0,-9.6 5.53,-18.4 14.24,-22.6 395.71,-190.1 760.64,-448 1080.26,-767.6 141.38,-141.3 270.6,-291.6 387.29,-449.5 14.58,-19.7 45.66,-9.7 45.66,14.8 v 1073.1 37.7 c 0,0 2.9,8.4 8.43,8.4 114.43,0 1361.62,0 1668.32,0 321.6,0 1022.1,-126.3 1665.3,-631.6 674,-529.6 1010.6,-1745.68 700.5,-2871.17 -310.1,-1125.5 -1401.1,-1757.14 -2411.7,-1757.14 H 8967.88 c -9.39,0 -17.93,-5.22 -22.24,-13.56 C 8761.25,6440.5 8520.98,6110.6 8229,5818.6 c -108.32,-108.3 -221.95,-209.3 -340.14,-303.2 -18.85,-15 -8.8,-45.1 15.28,-45.2 1116.44,-0.9 2361.96,-3.3 2813.56,-3.3 1137,0 2492.2,654.6 3204.2,1929.4 712,1274.79 597.2,2986 0,4042.6" /><g
         transform="scale(1.01642)"
         id="g34"
         style="fill:#000000"><path
           id="path36"
           style="fill:#000000;fill-opacity:1;fill-rule:nonzero;stroke:none"
           d="M 8150,16300 C 3648.88,16300 0,12651.1 0,8150 0,3648.9 3648.88,0 8150,0 c 4501.1,0 8150,3648.9 8150,8150 0,4501.1 -3648.9,8150 -8150,8150 z m 0,-457.2 c 1038.72,0 2046.1,-203.3 2994.2,-604.3 916,-387.5 1738.8,-942.2 2445.4,-1648.9 706.7,-706.6 1261.4,-1529.3 1648.8,-2445.3 401,-948.2 604.4,-1955.57 604.4,-2994.3 0,-1038.73 -203.4,-2046.11 -604.4,-2994.24 C 14851,4239.8 14296.3,3417 13589.6,2710.3 12883,2003.71 12060.2,1449.01 11144.2,1061.57 10196.1,660.554 9188.72,457.193 8150,457.193 7111.27,457.193 6103.85,660.554 5155.75,1061.57 4239.73,1449.01 3416.99,2003.71 2710.34,2710.3 2003.71,3417 1448.96,4239.8 1061.52,5155.76 660.508,6103.89 457.174,7111.27 457.174,8150 c 0,1038.73 203.334,2046.1 604.346,2994.3 387.44,916 942.19,1738.7 1648.82,2445.3 706.65,706.7 1529.39,1261.4 2445.41,1648.9 948.1,401 1955.52,604.3 2994.25,604.3" /></g><path
         style="fill:#000000;fill-rule:evenodd;stroke:none;stroke-width:52.78421783"
         inkscape:connector-curvature="0"
         d="m 6117.2441,9153.9112 c 2.611,0.556 4.061,6.6248 8.073,13.7887 -7.742,3.6259 -15.167,7.1076 -22.606,10.5983 -1.78,-3.9116 -5.412,-8.0337 -5.004,-11.6906 1.274,-11.248 9.6,-14.8091 19.537,-12.6964 z M 3980.68,11314.735 c -8.7903,11.248 -11.7814,19.139 -16.4968,20.358 -13.3861,3.467 -27.4196,5.027 -41.2843,5.81 -17.4751,0.989 -20.4803,-6.261 -14.0687,-34.51 19.9243,2.311 40.116,4.662 71.8498,8.342 z m -161.1115,6.08 c 0,-0.934 0,-1.892 0.1408,-2.858 1.865,0.729 3.8286,1.369 5.7992,2.002 l -1.9706,5.724 c -1.3935,-1.623 -3.9412,-3.23 -3.9694,-4.868 z m 79.3734,44.308 c 6.3904,-2.073 9.0296,-3.933 10.5006,-3.253 7.1997,3.333 14.1391,7.243 20.9307,11.335 0.4926,0.302 -1.2176,5.453 -1.3302,5.429 -7.7628,-1.527 -15.5326,-3.118 -23.1195,-5.334 -1.7665,-0.514 -2.8785,-3.229 -6.9816,-8.177 z m 24.4708,85.532 c 0.2815,-2.074 0.2111,-1.655 0,0 z m 831.2247,-889.131 c 11.2748,12.711 22.5495,25.423 33.8312,38.134 -26.8918,0.317 -34.7672,-15.204 -33.8312,-38.134 z m -70.1748,137.858 c -19.6217,11.009 -35.5273,7.993 -49.1668,-8.889 5.5881,-34.629 30.5304,-44.99 66.2196,-50.974 -2.8433,23.223 7.5869,46.05 -17.0528,59.863 z M 3478.8077,9412.2696 c 3.7442,-13.4635 9.6208,-26.3492 14.3855,-39.0772 22.1341,-6.6171 42.1429,-12.5929 61.9546,-18.5139 -2.1185,29.7534 -2.1185,29.7534 -40.9887,87.36 -37.4698,1.1084 -42.7975,-3.0883 -35.3514,-29.7689 z m 1253.0059,1317.2684 c -6.2779,2.27 -11.9152,4.994 -17.8341,5.968 -1.4146,0.211 -3.7864,-5.39 -5.7147,-8.311 5.588,-2.777 11.0706,-5.937 16.9472,-7.883 0.8023,-0.261 3.6104,5.508 6.6016,10.226 z m -528.2223,657.883 c -14.0265,15.924 -31.8113,1.4 -46.246,6.157 -17.2428,5.692 -32.5995,17.73 -49.9972,22.052 -10.0501,2.493 -23.5347,-3.871 -20.4873,-20.532 46.3093,-22.257 74.7072,-24.157 116.7305,-7.677 z m -393.538,-86.086 c -19.3894,15.593 -19.4527,15.585 -39.1025,9.411 14.8218,-3.569 26.9621,-6.49 39.1025,-9.411 z m 1311.0615,-185.752 c 37.7723,6.823 37.7723,6.823 67.3808,32.847 -32.684,8.414 -47.175,-11.001 -67.3808,-32.847 z m 367.6667,-1284.9513 c -16.2365,17.4927 -17.0247,18.2443 -53.8329,18.3161 16.5813,-8.644 30.3967,-25.606 53.8329,-18.3161 z M 5225.719,9586.347 h -44.008 c 14.8148,-21.4184 26.92,-21.0785 44.008,0 z m -1052.2639,2043.649 c -0.2112,-0.113 -0.3519,-0.204 -0.5631,-0.303 0.07,-4.109 0.1408,-8.224 0.2112,-12.332 0.6334,-0.211 1.2738,-0.443 2.0128,-0.647 l -1.9777,-1.417 c 9.7123,5.05 19.4387,10.092 29.151,15.134 -0.2111,0.267 -0.3519,0.527 -0.563,0.775 -8.5018,0.197 -16.9965,0.394 -25.4983,0.591 -0.929,-0.598 -1.851,-1.202 -2.78,-1.796 z m 2424.808,-5925.3343 c 0,0.07 0.423,-0.4785 0.803,-0.9444 -0.352,0.4222 -0.838,0.9923 -0.803,0.9444 z M 4322.4825,10647.007 c 27.5745,-2.254 37.6175,23.183 56.5143,31.502 -35.1332,0.26 -35.8159,-0.584 -56.5143,-31.502 z m -33.7889,1026.023 c 9.3111,-8.192 18.6926,-4.591 28.0671,0.282 -0.2112,0.352 -0.4927,0.633 -0.7038,0.957 -8.8115,0.07 -17.6088,0.1 -26.4203,0.141 -0.3519,-0.479 -0.6334,-0.871 -0.9712,-1.385 z m 171.3868,-928.818 c -17.2217,9.34 -31.6705,5.803 -47.3017,-1.187 -28.0601,-12.546 -34.5068,-35.12 -31.2342,-62.158 6.9746,13.314 18.5308,24.862 32.3321,16.725 43.9024,-25.859 69.1403,2.708 102.6899,27.497 -22.9857,7.504 -41.1083,10.781 -56.4861,19.123 z M 7883.8761,6701.0582 c -2.555,-5.2728 -9.114,-8.5954 -16.335,-14.6269 -3.73,6.9893 -9.783,13.8203 -8.305,16.5271 2.731,4.9878 9.593,9.4505 15.315,10.2971 2.667,0.4223 10.423,-9.9171 9.325,-12.1973 z m -306.557,-331.2879 c -0.281,-0.07 -1.457,3.595 -2.217,5.517 3.66,1.4097 7.291,2.9616 11.057,3.98 0.281,0.07 1.583,-3.6259 2.421,-5.5804 -3.73,-1.3984 -7.432,-2.8975 -11.261,-3.9166 z m -232.94,38.9984 c 9.719,19.2015 12.647,36.1558 22.162,41.6257 25.083,14.4129 48.646,35.8552 88.058,34.953 -22.514,-46.2003 -51.151,-72.1385 -110.22,-76.5787 z m 52.017,-163.2897 5.454,1.599 c 0.493,-1.5413 0.915,-3.077 1.373,-4.6133 -2.274,0.9979 -4.547,2.0114 -6.82,3.0143 z m -107.877,-124.1246 c -43.895,-36.2676 -90,-69.8518 -134.98,-104.8125 -5.482,-4.2601 -13.203,-9.9657 -13.71,-15.5608 -3.11,-34.4709 -31.29,-46.106 -54.607,-61.3353 -140.307,-91.6249 -291.375,-162.3234 -445.597,-226.6259 -12.33,-5.1461 -26.554,-5.7225 -40.046,-8.1287 0,-0.5912 -0.14,-1.0923 0,-1.7102 0,0 0,0.07 0,0.07 -0.872,0.1549 -1.717,0.2605 -2.568,0.366 -32.375,-26.4681 -70.52,-37.9687 -111.375,-42.4406 0,-0.5841 0,-1.1556 0,-1.6835 0,0 -0.633,0.7285 -1.028,1.1718 0.352,-0.4222 1,-1.1401 0.951,-1.0768 -0.838,0.3167 -1.661,0.6194 -2.485,0.9185 -12.401,-5.0251 -24.872,-9.9734 -37.35,-14.9119 -0.141,-0.6193 -0.352,-1.188 -0.563,-1.8425 l -0.211,0.1618 c -4.575,-0.4222 -8.938,-1.0451 -13.302,-1.6517 4.033,0.8445 8.08,1.694 12.127,2.5385 0.633,0.2604 1.302,0.5279 1.949,0.7763 6.003,21.2833 20.501,21.0377 37.35,14.9119 0.422,0.1548 0.824,0.3167 1.239,0.4715 0.492,0.07 0.908,0.1056 1.379,0.1619 0,2.0424 -0.14,4.2488 0.831,5.1306 31.741,27.8926 67.296,44.3958 110.544,37.3114 0.422,0.373 0.908,0.6616 1.351,1.0297 0.423,0.1055 0.887,0.1619 1.323,0.2111 -0.07,13.8985 11.268,18.4738 21.269,22.9379 30.425,13.5663 61.011,26.832 91.978,39.1005 82.076,32.5235 156.178,78.7076 228.514,128.74 103.443,71.5444 199.932,151.4161 293.381,235.3324 21.149,18.996 44.965,35.452 69.253,50.2773 7.918,4.8294 21.283,0.7601 40.116,0.7601 -15.814,-29.3649 -36.674,-45.077 -55.578,-60.6849 z m -655.362,615.0453 c 1.352,-0.6827 1.668,-3.4416 2.442,-5.2735 -1.583,-1.1451 -3.167,-2.2803 -4.75,-3.4204 -1.253,2.6765 -2.492,5.3586 -3.737,8.0422 2.062,0.3167 4.511,1.4089 6.045,0.6474 z m -250.95,-1110.6912 -3.758,2.1747 4.173,1.3985 z m -55.1,-12.4592 c 1.584,0.9347 3.174,1.858 4.772,2.787 1.57,-0.9444 3.132,-1.884 4.708,-2.8341 -3.16,0 -6.313,0 -9.48,0.07 z m -951.305,2447.1313 c -7.988,21.3628 -13.4212,29.6021 -13.4987,37.9054 -0.07,8.0492 4.5043,16.6291 8.7763,23.9668 1.3231,2.2648 11.8096,2.4549 12.1544,1.4942 2.6744,-7.5672 5.7007,-15.7909 5.0884,-23.5319 -0.7037,-8.6595 -5.0743,-17.0177 -12.5204,-39.8366 z m -42.9171,8.5637 c 2.5337,-2.5548 2.3788,-8.2393 2.4211,-12.5458 0,-1.3935 -4.1805,-4.3283 -4.6732,-3.9904 -3.4486,2.3809 -7.9387,4.9145 -9.1422,8.4222 -1.1965,3.4415 -0.2815,7.6143 0.2815,11.6505 -0.563,0.1056 -1.1964,0.2112 -1.7454,0.373 v 0 l 1.9917,1.8581 v 0 c -5.3628,-4.5444 -10.6624,-9.181 -16.1168,-13.6219 -14.7232,-12.0151 -30.0025,-26.6581 -50.0746,-13.1946 -25.6672,17.2154 -30.5796,36.2831 -22.5987,72.0279 80.2743,3.9588 80.2743,3.9588 116.2801,-27.8293 -9.5081,-6.2053 -18.5448,-12.1108 -27.5744,-18.0071 0,-0.5349 -0.1408,-1.0768 -0.1408,-1.6096 4.075,-0.8079 8.6989,-1.093 11.134,-3.5365 z m -57.6826,93.8187 c 8.7622,-0.2112 19.1713,-1.0402 17.5948,-13.9231 -0.3519,-2.6814 -6.8127,-4.6084 -14.0899,-9.1584 -4.5746,5.3748 -9.5645,11.2325 -14.5544,17.0894 3.6809,2.1114 7.418,6.0786 11.0495,5.9921 z m -230.674,-1766.3739 c -3.1741,2.1852 -6.3271,4.3916 -9.4801,6.6008 1.4358,1.6525 3.709,4.9301 4.2087,4.6873 3.4345,-1.7419 6.5312,-4.2122 9.7334,-6.4432 -1.478,-1.6152 -2.977,-3.2199 -4.462,-4.8456 z M 3955.5548,9007.8538 c -6.9887,3.9743 -13.0131,9.7594 -18.7983,15.4812 -0.4222,0.4223 5.5741,8.8572 6.2567,8.5405 7.3898,-3.4204 14.4418,-7.6298 21.2404,-12.1657 1.4709,-0.9867 1.5483,-4.0855 2.2662,-6.213 -3.7512,-2.0481 -9.0015,-6.7515 -10.958,-5.643 z m -176.5949,-242.3936 c -1.7313,3.3149 -3.7864,6.5382 -4.9054,10.0445 -0.2112,0.6827 3.1529,2.5175 4.8772,3.8159 1.7173,-1.3139 5.0884,-3.1353 4.8562,-3.8476 -1.0839,-3.4999 -3.1249,-6.7043 -4.828,-10.0128 z m -275.231,-2315.2559 c -1.4991,0.6827 -2.2733,2.9982 -3.3641,4.6134 l 7.9669,2.7286 c 0.1407,-1.9636 0.2815,-3.9321 0.4222,-5.8971 -1.7102,-0.556 -3.8215,-1.9952 -5.032,-1.4463 z m -109.58,57.4715 c -3.8146,-12.2368 -10.5358,-20.8878 -25.0831,-18.086 -1.9565,0.373 -4.5606,2.502 -5.1306,4.3445 -5.3559,17.1915 11.2043,17.5793 19.2697,24.418 1.485,1.2668 4.2931,0.9818 11.0354,2.2852 0,-8.3505 0.5631,-10.8433 -0.07,-12.9645 z m -57.2463,2732.1308 c -2.794,1.9685 -7.7346,3.7738 -7.9106,5.952 -0.2815,3.4415 2.6533,7.1315 4.2157,10.7173 2.7378,-2.048 5.4614,-4.1066 8.2062,-6.1659 -1.4991,-3.5049 -3.0052,-7.0048 -4.5113,-10.5034 z m -43.6912,-2719.9651 c -6.869,5.2869 -11.9222,12.973 -17.7778,19.59 l 8.1569,9.7432 c 12.9075,-7.1075 25.808,-14.2074 38.7366,-21.3311 -9.1915,-18.9327 -19.7131,-15.2441 -29.1157,-8.0021 z m -13.2876,-81.6445 c -2.6744,4.1854 -5.6303,8.8255 -8.5862,13.4635 3.6034,1.6623 8.6847,5.6908 10.5146,4.5338 4.8209,-2.9982 8.2062,-8.2716 12.1685,-12.6408 -3.8708,-1.4723 -7.7276,-2.9348 -14.0969,-5.3586 z m -11.1832,3031.133 c -1.6539,-0.2111 -3.4486,0.7812 -5.1729,1.2985 l 1.4006,4.5922 c 1.7594,-0.5419 3.5119,-1.0929 5.2573,-1.6363 -0.4927,-1.4941 -0.8375,-4.1805 -1.485,-4.2495 z m -19.3402,-2882.6925 -1.2245,3.7216 6.0174,-1.5518 z m 26.0684,250.2605 c 4.7999,-2.787 9.3323,-6.0547 13.6183,-8.9994 -4.096,-4.5288 -6.5522,-7.2342 -8.9944,-9.9417 -2.9137,4.7351 -6.0596,9.3562 -8.4736,14.3348 -0.3519,0.7918 3.5189,4.8034 3.8568,4.6077 z m -53.3824,14.9042 c -3.0263,5.0989 -6.116,10.2978 -9.2056,15.4904 5.0321,2.6603 10.0712,5.3108 15.1033,7.9704 2.2873,-5.6522 5.194,-11.1762 6.313,-17.0578 0.2112,-1.1134 -6.686,-3.5837 -12.2107,-6.403 z m -7.3828,-293.8174 0.6334,4.0587 3.9835,-2.6497 z m 3.6738,-72.5741 c -1.485,-1.0191 -3.7653,-0.8762 -5.7077,-1.2246 0.2815,2.6653 0.4926,5.3425 0.7601,8.0176 1.8439,-0.7122 3.6949,-1.4146 5.5388,-2.1374 -0.1408,-1.6152 0.2815,-4.07 -0.563,-4.6556 z M 2604.504,10234.501 c 0,0.07 0.4223,0.472 0.4223,0.472 0.7037,-3.996 1.3583,-8.002 1.5272,-8.968 -0.2112,0.807 -1.0698,4.608 -1.9566,8.477 z M 2338.5349,8350.1849 c -23.6896,0.8397 -21.0715,18.5773 -22.9858,30.3467 -1.4991,9.1894 3.7512,19.4711 5.9963,29.27 5.0532,-0.4223 10.0923,-0.8706 15.1455,-1.2985 2.6041,-10.939 6.7494,-21.7978 7.3265,-32.8403 0.4223,-8.5243 -3.5682,-17.2857 -5.4825,-25.4779 z m -36.1819,89.7818 c -15.3989,23.5945 -29.9181,47.7591 -44.6976,71.7584 4.1242,3.4098 8.2484,6.8225 12.3796,10.2345 20.3255,-21.379 39.7782,-43.573 50.5603,-72.2975 1.0979,-2.9137 -2.4914,-9.7588 -5.6796,-11.4767 -3.1248,-1.6785 -10.9299,-0.7122 -12.5627,1.7792 z m 5456.4451,1979.8603 c -1.759,-1.346 -4.377,-1.589 -9.473,-3.326 -3.3,6.087 -5.707,8.462 -5.243,10.005 3.069,10.447 6.405,20.857 10.74,30.798 0.422,1.013 9.445,0.373 12.112,-2.064 9.621,-8.833 5.694,-24.798 -8.136,-35.412 z m -18.727,79.887 -5.469,-1.346 c 0.211,3.309 0.422,6.61 0.704,9.91 1.914,-0.765 4.736,-1.046 5.489,-2.439 0.789,-1.493 -0.351,-4.038 -0.703,-6.126 z m -43.382,-1.446 c -10.184,0 -20.748,-1.589 -30.369,0.717 -4.426,1.062 -6.995,9.808 -10.402,15.063 5.145,2.455 11.162,7.932 15.259,6.752 9.719,-2.819 18.537,-8.785 27.722,-13.48 -0.746,-3.024 -1.478,-6.031 -2.21,-9.054 z m -566.938,730.644 c -1.126,1.591 -3.42,4.369 -3.188,4.598 2.323,2.311 5.067,4.203 7.692,6.214 1.063,-1.615 2.126,-3.23 3.189,-4.852 -2.555,-1.995 -5.124,-3.974 -7.686,-5.96 z m -367.617,75.447 c -0.634,-0.19 -2.316,3.079 -3.505,4.749 3.301,1.575 6.524,3.483 10.008,4.464 0.725,0.204 2.407,-2.992 3.667,-4.63 -3.351,-1.623 -6.63,-3.523 -10.17,-4.583 z m -81.119,-5.881 c -5.764,0.07 -11.5,5.636 -17.236,8.722 3.899,7.021 7.798,14.034 13.013,23.421 8.861,-6.276 17.032,-8.984 18.186,-13.495 2.541,-9.942 -2.956,-18.703 -13.963,-18.648 z m -62.461,-1658.4502 c -4.16,4.1806 -8.875,8.0021 -12.035,12.8379 -0.634,1.0029 5.778,8.7305 6.693,8.3188 5.046,-2.2641 9.395,-6.0787 14.048,-9.4027 -4.019,-5.422 -6.363,-8.5883 -8.706,-11.754 z m -65.009,-106.4749 c -7.608,3.6576 -14.653,5.1778 -14.921,7.4482 -6.51,58.3745 -20.846,113.8197 -57.126,161.6584 -0.824,1.0768 0.352,3.6266 0.922,5.7943 -0.352,-0.1619 -0.746,-0.2111 -1.112,-0.366 l 1.393,1.3935 -1.4,-1.3935 c -0.07,0.6334 -0.282,1.2514 -0.352,1.8848 -33.282,9.5215 -34.05,10.2021 -73.659,47.4431 3.223,12.9096 6.841,27.4021 10.212,41.7763 -0.493,0.1618 -0.922,0.3659 -1.415,0.5419 -0.07,-0.1056 -0.281,-0.2111 -0.351,-0.2674 -0.352,0.2674 -0.704,0.4785 -1.049,0.7333 -1.063,-0.2604 -2.175,-0.5701 -3.294,-0.7918 -28.707,-5.7218 -29.636,-5.8013 -28.433,23.4137 -0.563,0.373 -1.013,0.7341 -1.52,1.0979 v 0 c -0.563,0.7763 -1.084,1.5681 -1.64,2.3436 -4.223,0.6475 -8.438,1.2985 -12.661,1.9481 l 5.489,8.3104 c 2.393,-3.4254 4.786,-6.8465 7.172,-10.2578 1.098,-0.1618 2.21,-0.3167 3.308,-0.5278 0,-1.0296 0,-1.9481 -0.141,-2.9137 10.48,-7.6227 20.973,-15.2208 31.727,-22.6219 1.126,0.3167 2.217,0.6053 3.237,0.7974 l -0.422,-1.8263 c 42.157,-14.7705 56.458,-49.3913 63.447,-89.2201 0.633,-0.1619 1.126,-0.3168 1.745,-0.4786 0,-0.3167 -0.141,-0.6686 -0.281,-1.0029 14.209,5.4142 29.242,4.835 36.737,-8.5637 28.511,-51.093 48.85,-104.4093 34.388,-166.3372 z m -143.06,-79.6183 c -1.309,2.217 -2.611,4.4339 -3.92,6.6565 1.999,0.2604 4.209,1.1457 5.919,0.556 1.344,-0.4786 2.055,-2.7554 3.062,-4.2333 -1.697,-0.9867 -3.379,-1.9847 -5.061,-2.9771 z m -11.971,-73.4995 c -2.309,0.86 -4.87,8.0731 -3.604,9.9093 1.844,2.6765 7.01,3.0721 10.768,4.4395 1.331,-3.7744 2.661,-7.5509 3.984,-11.3422 -3.794,-1.193 -8.213,-4.1017 -11.148,-3.0087 z m -25.921,390.4772 c -3.864,-0.6264 -8.016,0.4786 -12.344,0.7129 -0.634,-0.5419 -1.316,-1.0768 -1.985,-1.568 0,0.5419 0,1.0029 0,1.5258 -49.089,19.1945 -49.272,19.4309 -75.214,63.0279 10.684,0 23.049,3.1248 25.513,-0.5279 15.068,-22.0835 50.757,-28.3282 49.701,-62.5218 0.282,-0.1056 0.493,-0.2111 0.725,-0.3167 l -0.718,-1.2352 c 0,0 0.718,1.2352 1.056,1.6363 0.352,-0.01 0.633,-0.07 0.929,-0.07 2.808,2.2852 5.546,4.7822 8.769,5.8893 3.188,1.0979 7.284,-0.4223 10.979,-0.7496 -2.449,-2.0585 -4.694,-5.422 -7.397,-5.8492 z m -65.262,-376.5 c -3.188,-0.9395 -7.693,2.6132 -11.648,4.2333 1.9,3.8638 3.019,9.9178 5.912,10.9306 2.935,1.0296 7.622,-2.9186 11.528,-4.6922 -1.872,-3.69 -3.061,-9.6567 -5.792,-10.4717 z m -76.495,369.5979 c -15.153,-6.2454 -18.299,4.1545 -21.515,14.4052 -0.837,-0.1056 -1.668,-0.1619 -2.477,-0.2111 0.281,0.4222 0.563,0.8713 0.894,1.3041 -26.449,-18.7187 -52.559,-37.961 -79.634,-55.7303 -7.355,-4.8294 -18.967,-8.8727 -26.399,-6.4509 -9.846,3.2149 -20.396,11.6667 -25.006,20.7378 -2.829,5.5881 2.323,20.6344 8.263,24.2519 15.835,9.6405 33.458,17.706 51.425,22.1778 30.552,7.6066 57.57,19.7723 76.685,48.6938 24.351,-24.6713 5.025,-38.5388 -5.334,-53.6801 0.352,0.2111 0.633,0.4786 0.964,0.6827 l -1.563,-1.668 c 0.563,0.556 1.563,1.6785 1.605,1.7102 0.211,-0.6053 0.352,-1.2197 0.563,-1.8369 9.691,1.1401 20.952,7.0048 24.83,-9.0789 0.352,-1.4779 -1.682,-4.6556 -3.315,-5.3263 z m -69.112,-397.5615 c 24.963,18.4343 24.984,18.3787 65.72,24.8451 -32.248,-46.5641 -32.248,-46.5641 -65.72,-24.8451 z m -131.658,326.8159 c -64.256,-8.6594 -109.946,-39.686 -135.416,-103.918 -14.449,4.165 -29.398,8.4694 -50.047,14.4136 -20.642,-10.9623 -45.218,-24.6791 -70.442,-37.0588 -10.106,-4.9617 -21.543,-9.316 -32.5855,-9.8932 -24.9423,-1.3041 -38.6591,7.3209 -39.3911,20.8716 -1.0486,19.2972 14.6389,24.228 27.1945,27.7505 20.3751,5.7147 19.0441,24.7586 29.9461,40.4545 -12.387,5.4853 -24.1821,10.6934 -39.018,17.2548 1.6821,25.9536 11.5211,45.6309 40.531,47.3488 19.587,1.1613 35.957,6.237 53.122,16.1942 63.806,37.0187 131.919,30.4178 199.701,13.8591 19.558,-4.7823 22.816,-21.8851 16.405,-47.2771 z m -350.3324,30.1644 c -4.0468,2.856 -7.228,13.0124 -5.201,17.3421 6.4467,13.8119 15.4692,26.421 24.52,41.1274 21.1348,-33.7348 20.9166,-47.0793 -0.3519,-59.1662 -4.9125,-2.792 -14.5544,-2.4541 -19.0234,0.6967 z m -41.4744,-99.8888 c -43.4871,-23.3581 -89.5924,-41.8474 -137.2108,-63.4875 -7.2631,11.628 -13.2101,21.1813 -19.4386,31.1702 -22.4298,-3.8533 -45.0004,-10.4323 -67.6976,-10.8996 -25.2097,-0.5279 -43.7123,16.5193 -60.6103,33.8058 8.2977,-0.7763 16.532,-1.568 24.7663,-2.3598 l 0.2112,2.5709 h -24.7382 c -23.1054,-4.3072 -46.2109,-8.6115 -62.2291,-11.5956 -34.2464,-26.9354 -62.9399,-50.9494 -93.3929,-72.4868 -8.2836,-5.8731 -24.513,-9.3717 -32.5151,-5.1834 -23.3376,12.2128 -39.4685,5.6197 -57.8374,-9.7911 -9.6489,-8.0971 -24.7945,-9.6328 -43.0086,-16.0992 1.485,41.5229 10.3809,72.7394 36.8716,99.0576 44.9862,44.6731 101.1345,70.1285 157.9515,94.4437 10.4935,4.4972 23.2602,4.2593 35.0698,4.9934 11.8448,0.7333 24.4708,-2.666 35.5625,0.2674 56.9858,15.1259 111.9096,9.0233 167.2485,-9.1971 14.5403,-4.7823 32.6207,2.0269 49.0753,2.0635 32.5362,0.07 65.1427,0.07 97.5945,-1.8369 13.379,-0.7812 26.4625,-6.5459 39.4263,-9.9811 -2.2944,-33.0697 -25.8995,-45.1404 -45.12,-55.4692 z m -139.4559,-153.1341 c 18.8334,40.7551 53.6569,44.3486 85.0037,50.7362 20.0017,4.0749 43.2549,6.0153 56.3877,-22.4952 -38.434,-38.8239 -79.2679,-64.3025 -141.3914,-28.241 z m -113.7746,29.9589 c -1.1964,4.2488 -4.4409,9.4822 -3.0052,12.4824 1.4146,2.9665 7.5447,3.6787 11.6126,5.3819 1.1471,-3.8004 2.2943,-7.5988 3.4204,-11.414 -4.0257,-2.1586 -8.0162,-4.3072 -12.0278,-6.4503 z m -47.8225,-43.7391 c -0.9431,-4.5662 -7.5024,-8.9599 -12.5697,-11.1839 -1.9917,-0.8713 -9.8108,4.8294 -9.5152,6.7036 0.7953,5.3509 4.4128,10.2739 13.8858,29.4684 4.8209,-13.5825 9.2548,-19.8511 8.1991,-24.9881 z m -70.3367,387.7705 -5.2784,-1.8686 0.4222,4.6084 z m 22.9787,103.7203 c 14.5966,5.1777 32.3532,5.12 48.0055,2.7553 23.9218,-3.6266 28.1375,-13.8675 27.5674,-56.6881 -20.2621,3.4098 -39.8345,9.1732 -59.428,9.2442 -16.532,0.07 -31.9661,-20.5471 -52.6223,-3.3303 7.5165,20.595 15.8986,40.7156 36.4774,48.021 z m 85.053,-84.4231 c 2.1536,1.2506 11.4577,-4.6873 11.2536,-5.2798 -9.5575,-29.3727 16.166,-46.3664 23.3799,-69.621 1.5201,-4.8935 -4.4269,-12.0946 -8.6426,-22.4558 -24.4074,11.0023 -47.182,21.2678 -68.0846,30.6873 -14.6318,27.8454 -9.0085,52.6435 1.2317,80.7423 18.7348,0.3167 22.3875,-24.8459 40.862,-14.073 z m 167.2133,-120.928 c -1.6961,-0.6052 -3.3781,-1.1929 -5.0602,-1.7946 -0.4223,2.5547 -0.8797,5.1046 -1.3231,7.6544 1.8298,-0.4223 3.9975,-0.4223 5.3558,-1.4308 0.922,-0.7073 0.7249,-2.8975 1.0275,-4.4233 z m -100.8108,150.4351 c 22.0005,-7.6143 44.0924,-15.6636 64.7487,-26.2465 17.2569,-8.8494 31.1427,-7.1476 41.1576,7.1949 22.289,-12.9723 4.4972,-27.616 8.1851,-39.7184 3.7723,-12.4345 8.2976,-24.6474 13.3297,-39.4326 -54.424,-6.1026 -101.5146,1.3513 -141.7854,35.143 -8.6848,7.2899 -8.2977,15.1892 2.9348,19.5344 1.5765,23.7613 -26.3851,23.0336 -33.8523,39.6944 14.0969,15.4743 30.3193,9.0156 45.2818,3.8322 z m 110.1501,1144.2993 -0.4926,-4.519 -4.6802,2.683 z m 144.291,-1221.7246 c -20.9518,-6.135 -34.8235,-7.8367 -46.0771,-14.2081 -9.7897,-5.541 -15.8001,-17.3653 -24.9635,-24.5447 -9.0225,-7.0921 -17.7495,-2.5702 -23.8443,5.9681 -4.0468,5.6592 -7.1646,11.9912 -10.4935,17.6588 24.0766,33.0535 24.0766,33.0535 105.3784,15.1259 z m -32.5081,2043.9886 c -2.2943,5.193 -4.5957,10.377 -6.8971,15.569 5.4966,2.098 10.9861,4.196 16.4757,6.293 1.4146,-3.768 2.8292,-7.543 5.0039,-13.338 -4.6661,-2.73 -9.6208,-5.627 -14.5895,-8.524 z m 133.2553,-2045.0499 c 4.336,-19.8744 -10.718,-23.7529 -23.788,-24.4729 -17.025,-0.9501 -34.2955,2.2957 -51.4539,3.7265 8.9874,40.7706 16.1309,42.7651 75.2419,20.7449 z m -34.288,669.3199 -2.041,-5.532 c -1.957,2.106 -4.111,4.075 -5.638,6.451 -0.211,0.316 2.682,2.66 4.139,4.069 1.175,-1.662 2.364,-3.325 3.54,-4.988 z m 71.033,1384.254 c 0.141,-0.07 0.422,0 0.422,0 -28.954,-6.648 -57.851,-16.637 -94.7579,-1.709 36.0129,19.819 65.3819,-2.944 94.3359,1.694 z m -465.7678,-758.428 c -5.0392,3.855 -10.0713,7.694 -15.1174,11.548 2.7518,3.586 6.1018,10.488 8.1287,10.124 5.7078,-1.029 10.8595,-5.066 16.701,-8.161 -4.441,-6.173 -7.0802,-9.838 -9.7123,-13.511 z m 150.4209,709.647 c -0.2111,-1.281 -4.0186,-2.722 -6.2496,-2.873 -54.1004,-3.577 -108.1655,-7.582 -162.3291,-9.767 -7.7065,-0.302 -15.779,8.343 -24.6045,13.385 49.6524,56.878 111.3958,47.356 172.1962,39.497 8.3118,-1.069 18.3196,-8.391 22.5565,-15.696 3.4344,-5.952 -0.3519,-16.274 -1.5695,-24.545 z m -749.9934,-444.941 c -1.3723,3.688 -4.5394,7.994 -3.5541,10.883 0.8305,2.438 7.7769,5.391 9.6982,4.243 2.8293,-1.71 3.6175,-6.839 5.2644,-10.528 -3.8075,-1.543 -7.608,-3.07 -11.4085,-4.598 z m 384.9518,489.203 c -1.0627,1.527 -2.2099,3.182 -3.357,4.836 1.9424,1.124 3.8989,2.248 5.8555,3.372 1.485,-2.731 2.984,-5.477 4.469,-8.208 z m 290.1162,30.07 c -254.3918,0 -502.0272,-28.914 -739.8377,-83.608 19.4457,4.06 38.9407,7.859 58.5834,11.041 51.2852,8.296 103.633,11.58 155.629,13.607 62.0039,2.422 124.1555,1.282 186.2439,1.202 16.6516,0 33.5778,-0.323 49.8283,-3.395 8.6143,-1.623 23.5417,-10.875 22.9013,-14.255 -7.3476,-38.499 45.9011,-54.488 31.5579,-96.739 36.1959,-18.284 72.0962,-36.005 107.5602,-54.543 12.5908,-6.586 24.4707,-14.69 36.0481,-22.97 7.2138,-5.152 4.9054,-20.943 -2.7589,-24.656 -2.1114,-1.02 -4.0257,-3.363 -6.0807,-3.426 -68.5351,-2.059 -133.6426,-30.767 -204.3313,-21.174 -72.99,9.902 -147.0216,12.221 -220.5747,17.976 -7.1153,0.563 -14.9696,0.302 -21.1066,3.276 -54.9378,26.5 -115.6256,25.82 -173.7023,33.007 -65.8325,8.144 -133.2203,5.342 -199.8692,3.997 -20.5999,-0.401 -43.0931,-8.003 -61.0819,-18.521 -53.3895,-31.171 -110.0375,-44.262 -167.1008,-37.423 -22.6831,-15.34 -25.7235,-32.658 -20.2832,-52.462 4.3917,-2.817 8.4877,-7.756 12.0067,-7.369 73.363,8.121 146.6486,16.994 219.9835,25.305 11.8096,1.337 24.6115,3.499 35.6469,0.479 54.7408,-14.96 108.6651,-1.1 162.6528,3.467 53.4036,4.519 59.8362,-0.451 56.3736,-56.855 28.5738,-16.337 56.2679,-33.481 68.8447,-73.571 -21.1348,-4.204 -38.8633,-7.416 -56.4158,-11.311 -18.5941,-4.132 -36.963,-9.3 -55.5783,-13.337 -48.857,-10.582 -97.8971,-18.688 -148.3588,-14.746 -24.0767,1.876 -48.4278,-0.162 -66.5152,-19.075 -3.8004,-3.974 -5.0884,-14.438 -2.5336,-19.25 2.5266,-4.765 11.148,-7.25 17.5525,-8.635 4.089,-0.887 10.205,0.682 13.3579,3.467 33.7256,29.816 75.4252,25.249 115.5623,27.663 23.3095,1.401 46.619,2.944 75.8544,4.805 12.5767,-7.496 29.8618,-20.184 49.0542,-28.4 12.5274,-5.375 27.8911,-6.126 41.8754,-5.66 25.0409,0.832 37.505,15.301 37.9061,41.349 0.07,7.069 -2.7025,14.184 -2.604,21.252 0,4.243 3.1389,8.446 5.3629,13.899 6.1582,1.132 13.2946,4.267 19.8469,3.34 37.709,-5.382 75.5447,-10.542 112.8526,-18.093 32.6277,-6.602 65.1428,-14.738 96.7922,-25.005 30.3052,-9.838 60.6948,-16.257 91.2041,-6.466 52.1649,16.748 103.1755,-4.33 154.7422,-1.773 34.908,-20.334 69.9708,-40.391 104.6394,-61.137 14.1392,-8.469 27.4056,-18.419 42.523,-28.676 64.9176,32.911 119.609,-2.644 175.9333,-25.756 7.8754,-3.238 13.4002,-13.124 19.0868,-20.635 7.7135,-10.163 2.4492,-25.906 -9.3745,-28.811 -6.8619,-1.686 -14.2658,-4.029 -20.9588,-3.008 -21.1911,3.253 -35.8159,-4.527 -49.7931,-20.563 -6.3271,-7.274 -23.6122,-13.567 -30.8331,-9.997 -27.87,13.796 -50.9403,1.036 -75.0521,-8.081 -15.3496,-5.794 -30.3192,-12.546 -44.1839,-18.332 -26.4695,12.34 -37.4416,30.774 -40.2005,56.918 -2.9629,28.075 -12.7385,53.989 -38.5958,78.732 -12.0911,-24.173 -18.5871,-44.934 -31.382,-60.527 -11.5491,-14.081 -29.9603,-22.511 -46.1404,-34.012 7.3616,-8.651 14.111,-16.598 20.5436,-24.156 -2.9348,-5.272 -4.2086,-11.398 -7.5446,-12.91 -14.9907,-6.768 -30.5726,-12.229 -44.8314,-17.73 -1.2668,-6.665 -3.9131,-11.738 -2.604,-15.355 6.4115,-17.532 13.8787,-34.677 22.845,-56.515 42.7904,7.108 84.2366,13.995 124.6974,20.714 5.2433,14.976 9.7757,27.909 15.8775,45.291 23.9641,-8.485 45.2959,-16.044 68.6547,-24.316 7.3968,-32.57 -11.0988,-55.659 -29.1439,-76.594 -29.4536,-34.186 -64.5587,-63.377 -80.1406,-108.327 -5.0672,-14.619 -21.7119,-19.147 -36.6252,-14.295 -17.7707,5.786 -34.6335,14.335 -55.8386,23.366 -28.2853,-29.603 -56.8381,-57.622 -83.0472,-87.684 -14.6388,-16.804 -4.4128,-42.409 17.8059,-51.393 31.2201,-12.617 31.2201,-12.617 42.7693,-41.887 -52.3057,-16.083 -76.9946,-65.696 -121.3474,-98.346 0,-39.742 1.7594,-79.934 -0.4927,-119.906 -2.4984,-45.053 1.4428,-84.81 45.0566,-111.769 15.0048,-9.276 16.0816,-28.447 6.6368,-45.275 -5.8415,-10.409 -9.3886,-25.4 -18.3267,-30.189 -38.6451,-20.706 -46.8161,-64.088 -71.7162,-94.815 -27.497,-33.924 -43.5364,-78.755 -58.1963,-121.038 -16.2857,-46.992 -4.1102,-91.53 37.1389,-121.37 39.0392,-28.2504 67.4723,-66.9074 103.8864,-97.2225 34.0494,-28.3282 42.9453,-67.6665 51.2781,-107.4081 1.7877,-8.5482 -0.9431,-19.2106 -4.645,-27.5372 -12.9638,-29.1749 -35.281,-48.5988 -63.3481,-61.2627 -19.0797,21.9723 9.9375,30.0616 7.9951,48.781 -7.8051,6.142 -16.3491,14.3813 -26.2795,20.1833 -8.0373,4.6872 -18.4323,5.2256 -26.6596,9.6806 -52.8757,28.6527 -104.4987,58.8016 -117.8073,124.9086 -23.6614,9.7271 -45.4015,18.6476 -70.1819,28.8265 -18.6575,-14.0892 -37.1108,-28.0115 -58.3794,-44.0713 -11.6125,3.2198 -25.083,9.9572 -38.5465,9.9495 -18.4112,0 -38.3777,-1.5892 -54.8815,-8.841 -28.1516,-12.3719 -54.1215,-29.6824 -83.8988,-46.5494 -1.2035,-20.4289 -2.4492,-41.3877 -3.7582,-63.5747 -2.2451,-2.1902 -5.0251,-6.8697 -9.0296,-8.4293 -15.1174,-5.8879 -31.748,-8.7699 -45.7675,-16.4792 -21.5993,-11.8652 -43.3042,-14.9914 -67.8875,-16.5588 -34.9924,-2.2324 -69.9497,-11.8405 -103.7808,-22.0588 -15.0822,-4.5444 -30.4037,-15.8297 -40.3764,-28.2656 -29.8055,-37.1538 -57.8445,-75.8186 -84.9826,-115.0147 -20.5225,-29.6261 -25.6672,-61.1361 -3.9835,-93.6836 18.017,-27.022 20.1143,-56.0779 16.6024,-88.8154 -5.9892,-55.9126 17.1232,-108.0887 36.5056,-158.6581 10.4372,-27.2444 34.9713,-50.7763 57.4222,-71.2756 27.9404,-25.5117 59.7236,-47.0244 91.1407,-68.3718 8.8467,-6.0152 22.1412,-6.8781 33.5356,-7.4953 20.8955,-1.1296 41.8966,-0.3167 73.1519,-0.3167 32.0013,22.4157 73.4756,50.19 113.486,79.9273 30.8331,22.9062 46.9921,53.4345 37.4768,93.3422 -2.7588,11.5886 -6.7211,22.9308 -8.8044,34.6292 -3.5963,20.2072 1.3865,39.2827 17.3766,51.8996 44.754,35.3014 88.2341,73.1357 145.3889,88.1271 18.4815,4.835 34.8305,-0.4223 41.7347,-17.801 9.2548,-23.2546 27.5885,-46.4226 4.8209,-73.1913 -4.6942,-5.5247 -3.9905,-18.5849 -1.4427,-26.8326 9.9023,-32.1118 18.7982,-64.287 14.6318,-98.1956 -2.6181,-21.2044 19.1853,-25.0661 25.6038,-39.2665 -5.3769,-27.647 -16.3912,-54.322 -11.6196,-83.378 37.7865,-4.1805 57.014,31.2251 88.7901,35.975 0,0 -1.1331,1.1872 -1.1331,1.1872 0.2816,0.1056 0.6335,0.2604 0.9079,0.366 -4.3846,23.4369 3.2586,35.1515 26.4203,39.7972 1.9495,0.366 4.2157,-0.7812 10.402,-2.0952 -0.4223,-7.401 -0.8234,-15.4109 -1.2527,-23.4291 l 1.6679,0.6686 v 0 0 l -0.2111,-0.2112 -1.4709,-1.2189 c 8.8325,3.4675 18.3478,5.7936 26.371,10.5983 49.3427,29.5472 100.0296,26.0642 156.0512,6.2131 6.6297,-11.1994 21.7753,-25.1302 22.0427,-39.3376 1.0768,-56.6495 35.9918,-102.8258 44.0573,-156.9578 7.2138,-48.3932 40.3482,-75.4237 84.0747,-87.4142 36.3507,-9.9656 74.5735,-13.1559 112.55,-19.4478 17.2499,18.0698 34.9924,31.4784 45.9715,49.1133 34.9009,56.0625 87.833,58.8811 144.2562,52.6906 13.78,-1.5096 27.117,-7.1864 37.526,-10.0755 24.147,8.651 32.979,25.7081 37.061,44.7209 3.477,16.1942 7.087,33.8446 4.174,49.6672 -12.338,67.1042 22.479,111.0735 73.546,141.8783 29.369,17.7229 42.776,43.1219 58.273,69.4556 8.319,14.1441 13.724,31.6846 25.548,41.5306 8.959,7.4637 27.004,9.1894 39.264,6.237 16.286,-3.9271 18.102,-19.8271 14.111,-35.1585 -2.294,-8.8178 -4.771,-17.5954 -8.537,-31.3996 26.653,2.8032 35.021,19.4788 44.586,34.6047 2.92,24.8536 -14.238,50.2611 2.16,75.2576 23.479,3.1509 28.208,-23.6269 53.066,-30.9801 33.36,6.4115 74.285,14.6592 107.532,-20.4923 14.329,7.6538 27.23,13.6219 39.173,21.1257 26.842,16.8748 53.6,30.2038 87.333,20.7773 13.513,-3.785 28.243,-0.2112 38.026,13.4635 8.797,12.2762 11.528,23.0807 7.101,39.3538 -5.222,19.2261 7.664,32.5552 24.956,34.1464 75.89,6.9732 112.931,28.4148 154.046,89.3933 26.631,-6.5066 4.849,-28.1784 12.548,-41.4441 8.214,-14.1124 11.205,-31.2482 17.081,-48.8761 15.406,-11.856 32.325,-24.8613 52.489,-40.3743 15.505,-0.7073 34.359,-1.9213 53.242,-2.3436 31.839,-0.7129 60.758,-9.8939 87.361,-27.4893 9.705,-6.427 20.15,-12.5141 31.115,-16.1231 66.437,-21.8456 72.054,-22.9619 133.502,15.9809 50.201,31.8106 103.351,31.9056 158.275,25.0437 16.412,-2.0586 32.093,-9.5307 48.477,-12.3163 32.635,-5.541 56.275,-21.7112 74.58,-49.8734 11.338,-17.4448 26.751,-35.7208 44.783,-44.6097 37.068,-18.2682 59.653,-46.0264 70.836,-84.7475 38.237,-14.0258 75.298,-12.9096 113.219,-5.7542 27.891,5.2468 56.704,5.9604 84.285,12.3001 31.495,7.2343 55.839,-3.5048 75.454,-23.389 21.698,3.7055 40.566,5.5803 58.661,10.345 22.802,6.0076 48.322,9.656 66.747,22.7085 36.843,26.0965 72.04,22.8429 107.236,2.8398 38.181,-21.6958 74.715,-45.1721 116.689,-13.6064 43.149,-47.586 66.944,-95.797 76.846,-150.8861 10.712,-59.5139 4.828,-118.7666 -4.06,-177.9089 -4.589,-30.5128 -8.924,-61.065 -13.013,-91.6411 -2.534,-18.9095 -1.633,-38.7451 -7.067,-56.7044 -15.842,-52.3352 -7.41,-103.3395 2.041,-155.2158 8.953,-49.1928 22.81,-99.7151 19.017,-148.4483 -4.934,-63.4086 -0.978,-127.9799 -16.574,-190.6284 -5.138,-20.6499 -6.37,-42.2506 -10.86,-63.1074 -10.465,-48.6065 -21.684,-96.4058 -64.045,-130.2271 -26.033,-20.7857 -48.836,-45.5042 -61.588,-77.7589 -3.364,-8.556 -8.115,-18.0149 -15.054,-23.4918 -37.541,-29.7056 -51.813,-73.508 -71.196,-114.2391 -14.73,-30.9801 -20.719,-63.6142 -13.998,-97.5073 8.748,-44.0635 0.352,-84.953 -20.044,-124.1013 -2.203,-4.2333 -5.243,-8.2871 -6.355,-12.7984 -22.641,-90.8663 -68.69,-172.1702 -105.118,-257.3766 -14.963,-35.0248 -31.826,-69.3528 -49.807,-102.9369 -12.479,-23.318 -30.144,-42.6778 -55.354,-54.0912 -21.458,-9.7045 -42.269,-20.8413 -63.404,-31.3686 1.288,-4.3388 4.188,-9.0226 3.695,-13.3122 -2.871,-24.6558 27.237,-41.3406 17.517,-66.2575 -14.709,-37.6366 -27.419,-77.2839 -58.815,-105.2081 -30.277,-26.927 -61.315,-53.3248 -94.217,-76.8398 -22.852,-16.3293 -39.792,-34.4237 -41.58,-62.9103 -2.984,-47.4903 -33.627,-71.2988 -73.095,-87.8097 -10.353,-4.3283 -24.844,-1.7475 -27.251,-18.2528 5.433,-14.8408 15.223,-3.8476 23.267,-3.9272 16.912,-0.1618 26.765,-14.6507 18.897,-27.5998 -3.681,-6.0469 -8.065,-11.754 -12.724,-17.0887 -7.841,-8.9761 -20.248,-16.2026 -23.606,-26.5005 -17.221,-52.7856 -48.195,-96.0335 -86.516,-135.0079 -1.879,-1.9003 0.922,-8.3984 1.886,-15.1259 h 38.955 c 11.338,-20.2867 1.9,-34.4779 -8.038,-48.1399 -31.91,-43.8341 -64.143,-87.4465 -97.165,-132.4124 9.586,-15.7585 18.017,-29.6183 25.991,-42.7017 h 51.222 c 0,0.5419 -0.141,1.1134 -0.141,1.6363 l 0.141,-0.2111 c 1.464,-0.1619 2.878,-0.2675 4.321,-0.373 3.273,1.0768 6.545,2.1536 9.902,2.8503 0.746,0.1619 2.105,-2.5864 3.175,-3.9961 -4.322,0.3167 -8.692,0.7284 -13.077,1.1458 -1.084,-0.373 -2.153,-0.7073 -3.237,-1.0452 h -1.14 c 0.492,-6.5065 2.843,-14.5325 -0.141,-18.1338 -27.737,-33.4258 -59.71,-61.8096 -102.606,-74.2125 -29.756,-8.6116 -59.54,-17.8171 -89.937,-23.3729 -51.44,-9.404 -88.241,11.1044 -107.152,60.5668 -18.756,49.0492 -28.736,99.4454 -9.867,151.6694 4.687,13.0047 6.813,27.4499 7.347,41.3406 2.063,54.3931 2.344,108.8566 4.758,163.2264 0.732,16.3209 6.32,32.4039 9.417,47.2447 -7.467,16.5989 -15.104,31.3363 -20.783,46.7788 -6.771,18.4027 -6.193,36.1565 2.076,55.3742 21.867,50.8072 32.501,104.733 35.724,159.8383 2.112,35.8553 -1.625,70.4768 -16.06,104.9153 -18.425,43.9207 -21.557,91.7679 -17.757,138.9978 5.778,72.0195 0.282,142.5751 -20.093,211.8716 -9.402,32.0253 -14.667,63.9865 -15.166,97.9422 -1.084,71.0074 -30.278,133.8214 -66.206,195.2425 -61.173,20.1994 -121.284,36.7659 -187.912,32.3018 -53.945,-3.6154 -110.058,0.7341 -160.978,25.1309 -21.057,10.0839 -42.093,19.4317 -49.223,47.5466 -3.462,13.5895 -19.537,27.0692 -33.211,34.4224 -55.009,29.5394 -102.275,69.2972 -147.423,111.1291 -43.959,40.7072 -92.703,74.4891 -141.012,109.1331 -19.649,14.0969 -40.672,24.2843 -66.62,19.7406 -23.817,-4.1538 -41.812,5.1679 -51.25,28.3444 -1.774,4.3705 -1.394,10.5505 -4.392,13.3368 -42.706,39.7261 -47.717,84.1775 -21.135,135.3965 7.826,15.0864 -1.034,32.325 -20.198,39.2109 -17.454,6.2694 -28.645,12.9103 -32.255,32.4919 -4.49,24.363 -32.177,38.555 -23.647,71.4184 9.156,35.2697 21.029,73.6896 -3.498,111.3585 37.462,31.2328 46.774,70.7055 45.683,115.4813 -0.423,17.9593 4.771,39.394 15.159,53.5859 20.854,28.526 24.513,50.5616 4.336,83.4096 -14.196,23.1202 -28.257,50.2295 -35.83,76.3647 -18.651,64.3665 -76.207,81.5812 -122.657,112.6246 -4.567,3.046 -13.949,-2.1853 -20.248,-0.4786 -12.1823,3.3254 -23.7597,8.8657 -38.3492,14.572 -5.757,-10.1318 -12.7034,-22.3439 -21.3389,-37.5254 5.0321,-6.9893 9.7334,-14.7774 15.6663,-21.4972 9.1704,-10.3774 11.6055,-22.2102 2.2381,-31.8268 -11.2466,-11.5485 -23.9922,-23.4608 -38.4691,-29.5556 -19.0376,-8.026 -40.4046,-10.535 -64.4601,-16.297 -17.0036,26.6103 -39.8556,28.835 -71.9133,18.0938 -28.1586,-9.4428 -60.6807,-9.3478 -83.4624,22.2179 -6.5522,9.0789 -24.9774,12.8695 -38.0539,13.0757 -16.1942,0.2674 -32.3672,-7.5664 -48.7585,-8.6517 -29.9533,-1.9847 -57.5066,2.7765 -69.9496,36.3388 -9.8883,26.6426 -29.6155,41.2934 -57.0422,49.0661 -20.431,5.7858 -39.0674,17.6109 -59.1746,24.893 -31.4313,11.3979 -61.9476,18.8144 -97.1159,7.0921 -26.2584,-8.7544 -56.7114,-4.6929 -85.243,-7.021 -18.8475,-1.5364 -38.4833,-1.4569 -56.1906,-7.0682 -33.9719,-10.7806 -65.6073,-6.7514 -97.6719,6.0709 -28.7709,11.5084 -58.0134,21.8224 -87.1221,32.4919 -41.8051,15.3391 -79.486,13.0201 -109.8545,-24.4975 -30.8683,-38.1433 -71.5051,-52.0502 -120.1228,-50.5462 -64.3827,2.0002 -128.8639,0.4223 -193.2888,1.2985 -16.5461,0.2111 -33.1274,3.4887 -49.5538,6.1891 -11.6689,1.9157 -23.9078,9.2999 -34.5139,7.2265 -51.2077,-10.0212 -98.7487,4.3438 -146.3882,18.7187 -18.0663,5.4537 -36.6956,10.963 -52.9039,20.2389 -25.9276,14.8493 -44.2472,36.0854 -41.6221,69.3212 3.4204,43.2401 -27.4971,69.5499 -52.3479,96.8097 -17.2639,18.9573 -40.2638,35.9355 -64.0589,44.9426 -40.1441,15.1892 -72.0962,46.8809 -115.5904,54.4086 -15.1667,2.6286 -24.154,12.8934 -29.6788,27.7659 -3.8568,10.4006 -9.4167,22.7007 -18.024,28.3761 -35.5907,23.4918 -72.4059,45.1558 -109.4112,66.392 -4.6098,2.6441 -17.3695,0.6193 -18.7419,-2.5548 -3.3078,-7.5749 -5.0462,-18.4977 -1.8439,-25.5109 3.5682,-7.8198 13.8646,-12.2917 20.255,-19.1304 27.5886,-29.5156 55.6135,-58.6905 81.9141,-89.3461 16.9754,-19.7955 30.0307,-42.1563 56.1132,-53.4669 11.9151,-5.1778 20.5788,-19.1551 29.2354,-30.2911 20.1987,-26.0008 18.6645,-32.848 -13.8084,-66.986 -34.1127,23.1673 -66.5292,52.1374 -112.5993,52.4935 -14.0335,0.1056 -25.3857,12.5451 -29.1228,28.0193 -4.462,18.4027 -8.5229,36.9004 -11.9151,51.6856 -22.6198,24.727 -50.8559,22.0835 -75.5307,29.2235 -35.1332,10.1704 -65.171,26.4758 -80.6402,59.3709 6.3833,15.4665 15.3426,11.6196 24.7663,11.7463 14.0476,0.1619 22.648,15.7191 14.2306,23.2145 -12.2741,10.939 -24.9704,22.5586 -39.5811,29.4606 -18.6363,8.8016 -29.6577,22.4312 -39.2433,39.6234 -26.5188,47.5543 -54.0651,94.5379 -80.3798,140.311 -20.6844,2.238 -14.2447,-17.9509 -28.5176,-25.7798 -5.8977,13.6542 -11.6266,26.8883 -19.2345,44.476 -14.7937,-4.6873 -29.6788,-9.4041 -44.5218,-14.1054 -3.9553,2.5653 -9.297,4.1228 -11.2676,7.5911 -39.8627,70.1439 -77.4521,141.6566 -110.0798,215.2991 -15.8704,35.8405 -31.1286,75.1225 -16.5461,116.9621 2.3296,6.6726 4.6169,14.2552 3.7512,21.0067 -8.8536,68.4189 15.0752,131.8106 28.2361,197.0481 10.8172,53.648 21.6626,108.025 9.9234,161.048 -22.2468,24.371 -42.9171,47.001 -65.5228,71.76 27.7575,41.704 29.4184,80.662 -6.313,124.37 -5.9259,-28.614 -10.5357,-50.752 -15.61,-75.258 -30.453,28.163 -40.5313,46.193 -26.5611,74.498 28.215,57.123 15.596,117.421 20.9096,176.143 2.5337,27.861 -13.3931,38.855 -41.1576,32.152 -53.0657,-12.815 -96.2573,-44.816 -124.7115,-88.413 -37.0052,-56.688 -81.6466,-104.725 -129.8632,-151.178 -42.4526,-40.898 -80.4573,-86.394 -121.5656,-128.748 -7.3546,-7.591 -20.2832,-9.767 -30.643,-14.438 l -0.4223,-0.422 c 41.4743,67.097 89.1772,129.302 143.8616,186.228 24.9001,25.914 42.8186,54.994 52.5872,91.341 11.6196,43.24 34.1901,82.103 62.5669,118.536 83.5398,107.283 169.0995,212.807 266.328,307.891 42.3963,41.444 90.8945,76.706 137.1757,114.082 15.3003,12.347 32.1209,16.384 53.2276,11.128 41.1154,-10.226 80.1546,-1.203 114.6121,23.825 57.1055,41.475 120.4888,65.474 190.8537,71.497 12.3444,1.061 23.0702,6.253 24.1259,24.83 -18.2141,16.828 -44.3599,-24.505 -63.2707,9.103 2.787,5.223 5.2151,15.031 11.4436,20.524 35.4428,31.288 64.073,70.848 109.6012,90.232 7.812,3.324 15.7578,11.446 19.0375,19.273 8.002,19.155 23.5347,29.713 39.6867,39.703 51.8411,32.103 103.9989,63.684 156.0301,95.44 -0.07,0.479 -0.1408,0.935 -0.2111,1.401 0.4222,-0.274 0.8093,-0.513 1.2105,-0.784 l 1.1542,0.705 c 0,-0.451 -0.1408,-0.894 -0.1408,-1.346 9.6701,-6.237 18.9179,-8.373 28.2502,2.747 8.6988,10.337 16.6727,25.123 27.9263,28.763 34.9643,11.295 60.5541,34.946 88.6916,56.277 33.1555,25.123 69.0981,46.541 103.9286,69.455 0,0.641 0,1.29 0,1.931 -9.1352,2.961 -11.324,6.808 -0.2111,12.332 0,0.729 0,1.457 0,2.186 1.126,0 2.2591,-0.07 3.3922,-0.08 8.5722,5.516 17.1373,10.321 25.4983,-0.591 0.6334,0 1.3161,0 1.9706,-0.07 l -0.7812,-1.568 c 23.2392,24.624 46.1194,49.961 85.2923,42.742 l -1.1753,2.097 c 0.8867,0 1.7524,0 2.6251,0 8.8326,12.981 17.6299,12.507 26.4203,-0.14 h 2.5054 v 0 0 l -1.0838,-1.971 c 42.0303,32.523 89.1279,55.35 139.6178,70.888 28.609,8.809 57.2603,17.54 85.9749,25.97 -163.0821,-46.312 -320.9703,-104.955 -472.6791,-174.759 3.2233,-0.549 6.4537,-1.092 9.67,-1.638 -0.07,-0.437 -0.2111,-0.863 -0.2815,-1.298 -3.4767,0.815 -6.9745,1.63 -10.4583,2.445 -2.5688,-1.187 -5.1588,-2.359 -7.7206,-3.554 -3.1037,-10.06 -10.1557,-14.461 -21.9019,-12.189 -0.2111,-0.141 -0.3519,-0.275 -0.563,-0.416 v 0 c -0.6334,-0.387 -1.295,-0.806 -1.9777,-1.195 -3.1811,-12.339 -11.8307,-15.489 -23.2462,-14.073 -0.4926,-0.288 -0.943,-0.556 -1.4075,-0.846 -1.4217,-0.591 -2.8433,-1.188 -4.1876,-1.868 -1.6117,-2.011 -3.2093,-4.013 -4.8139,-6.024 0.8234,1.599 1.295,3.625 2.5618,4.694 0.7038,0.549 1.4568,0.934 2.2521,1.33 0.8446,1.068 1.7032,2.137 2.5548,3.197 0,0 1.7946,-1.464 1.6328,-1.329 0.1407,-0.134 -1.6328,1.329 -1.4991,1.234 0.9994,-0.176 1.9425,-0.267 2.9066,-0.387 7.601,4.813 15.3356,9.514 23.2462,14.073 0.2112,0.705 0.4223,1.299 0.5631,2.05 0,0 0.1407,-0.07 0.2111,-0.148 0.6334,-0.14 1.1331,-0.176 1.7243,-0.288 2.3225,1.805 4.7576,3.53 7.1364,5.311 -1118.582,-525.476 -1893.1447,-1662.7702 -1893.1447,-2981.1307 0,-1817.854 1472.6515,-3291.5098 3289.2521,-3291.5098 1816.6149,0 3289.2589,1473.6558 3289.2589,3291.5098 0,1817.8457 -1472.644,3291.5087 -3289.2589,3291.5087 z m -908.2827,-1365.33 c -19.0446,24.791 -22.3594,51.283 -23.9429,80.023 -0.4223,7.74 5.3488,19.629 -12.8301,24.473 -13.4283,-56.467 -23.5136,-110.512 23.4151,-158.533 24.8156,24.767 29.4676,33.086 13.3579,54.037 z m -193.3099,763.273 4.5465,0.752 -3.3923,2.58 z m 100.5715,10.843 c 4.8491,-1.559 8.0303,-8.239 13.2946,-14.088 -6.0455,-5.7 -9.9586,-12.546 -14.9485,-13.448 -10.0149,-1.829 -16.8557,4.686 -16.3349,15.054 0.563,10.654 8.3047,15.617 17.9888,12.482 z m 24.1893,-72.131 c 2.0973,-4.828 4.1735,-9.663 6.2637,-14.492 -3.5049,-1.187 -8.0936,-4.283 -10.2261,-3.063 -2.7518,1.559 -3.5189,6.593 -5.1447,10.131 3.0334,2.486 6.0667,4.956 9.1071,7.425 z m 59.3435,-85.19 c 5.011,14.232 18.7208,14.422 29.0525,11.747 9.107,-2.36 16.4264,-11.588 30.8471,-22.598 -18.0452,-9.585 -28.6865,-18.371 -40.5735,-20.659 -11.4014,-2.201 -23.6192,19.273 -19.3261,31.51 z m -188.8901,101.868 c -30.0377,17.555 -59.6461,-2.849 -87.9525,2.256 -35.5273,6.404 -58.309,-10.504 -78.1559,-33.615 -24.5904,-28.637 -47.0342,-59.214 -69.2669,-89.79 -16.7643,-23.064 -32.86,-47.174 -20.7337,-77.893 14.3362,-3.791 28.5457,-5.39 40.6157,-11.334 12.2178,-6.016 22.3242,-16.337 33.4019,-24.806 41.4532,23.674 84.5814,24.537 127.231,22.02 53.2488,-3.143 104.2313,2.177 153.961,22.55 14.7304,6.031 32.1492,5.43 48.2519,7.86 10.9298,-12.688 20.2058,-23.295 29.2917,-34.043 16.5602,-19.551 47.8718,0.225 58.7171,-16.068 11.7674,-17.675 16.4054,-37.225 44.8314,-33.94 0,11.279 1.3654,23.048 -0.4222,34.304 -1.3302,8.327 -6.0034,16.115 -9.5434,24.094 -1.0064,0.1 -1.9917,0.162 -2.9911,0.26 l -11.9785,-7.907 c -0.6334,3.031 -1.3161,6.071 -1.9777,9.11 4.631,-0.373 9.283,-0.783 13.9562,-1.203 0.7178,0.479 1.4357,0.95 2.1676,1.425 -13.3368,14.944 -26.7369,29.966 -42.1851,47.293 15.1737,15.133 29.341,27.165 40.9535,41.293 23.584,28.653 15.04,61.991 -20.2832,74.228 -19.4457,6.728 -40.9957,7.361 -59.3013,10.369 -5.0954,18.743 -4.5324,42.243 -14.4066,48.068 -26.6103,15.712 -33.4018,45.521 -54.8885,64.248 -17.7426,15.458 -26.174,37.929 -30.1926,64.634 12.5275,7.972 23.401,16.995 35.851,22.401 24.513,10.645 27.5112,29.08 23.1618,55.073 -23.4433,-14.825 -44.8455,-28.36 -67.3457,-42.575 -13.2312,9.933 -24.2244,18.188 -37.4275,28.106 -11.5844,-33.489 -40.2357,-6.815 -63.7704,-18.165 5.1799,-15.688 14.1955,-30.624 13.8225,-45.33 -0.3519,-14.651 -10.1346,-29.064 -17.1796,-47.174 32.67,-5.327 59.7096,-9.736 90.0359,-14.683 -13.9069,-25.383 -23.6052,-47.024 -37.1109,-65.933 -5.9329,-8.303 -23.8233,-18.228 -29.1157,-15.134 z"
         id="Fill-11" /></g></g></svg>